<svg id="Capa_1" enable-background="new 0 0 514.121 514.121" height="512" viewBox="0 0 514.121 514.121" width="512" xmlns="http://www.w3.org/2000/svg"><g><g><path d="m146.208 380.245 5.723 16.192c3.894 11.017-4.278 22.573-15.963 22.573h-19.054c-11.685 0-19.857-11.556-15.963-22.573l5.723-16.192 5.811-15.787h27.065z" fill="#fea95c"/><path d="m280.615 356.867 6.82 19.294c4.64 13.128-5.098 26.898-19.021 26.898h-22.705c-13.924 0-23.661-13.77-19.021-26.898l6.82-19.294 6.61-20.207h32.699z" fill="#bbec6c"/><path d="m407.447 380.245 5.723 16.192c3.894 11.017-4.278 22.573-15.963 22.573h-19.054c-11.685 0-19.857-11.556-15.963-22.573l5.723-16.192 7.034-15.787h26.053z" fill="#fe646f"/><g><path d="m506.621 201.07c0 42.078-56.542 126.498-90.98 174.014-12.787 17.643-39.058 17.643-51.845 0-34.438-47.516-90.98-131.936-90.98-174.014 0-60.504 52.339-109.553 116.903-109.553s116.902 49.049 116.902 109.553z" fill="#fd8087"/><path d="m243.305 201.115c0 42.078-56.542 126.498-90.98 174.014-12.787 17.643-39.058 17.643-51.845 0-34.438-47.516-90.98-131.936-90.98-174.014 0-60.504 52.339-109.553 116.903-109.553s116.902 49.048 116.902 109.553z" fill="#fea95c"/><path d="m139.315 253.81c14.43 25.279 30.988 50.849 46.244 73.19 28.989-44.335 57.746-95.877 57.746-125.886 0-56.261-45.259-102.606-103.516-108.831.002-.001.004-.001.006-.002-.081-.009-.165-.01-.24-.037-.763-.273-1.547-.483-2.343-.331l-.442.084c-3.416-.284-6.872-.436-10.367-.436-64.564.001-116.903 49.049-116.903 109.554 0 42.078 56.542 126.498 90.98 174.014 12.72 17.55 38.791 17.632 51.651.265-1.369-1.315-2.662-2.77-3.828-4.378-34.438-47.516-90.98-131.936-90.98-174.014 0-29.412 12.376-56.107 32.506-75.783 3.344-3.268 8.917-.59 8.395 4.056-.59 5.248-.896 10.575-.896 15.97.001 26.252 13.735 63.072 41.987 112.565z" fill="#fe9738"/><path d="m375.806 250.81c28.252-49.493 41.986-86.313 41.986-112.566 0-15.651-2.514-30.756-7.174-44.979-6.782-1.147-13.766-1.748-20.9-1.748-64.563 0-116.903 49.048-116.903 109.553 0 29.5 27.79 79.809 56.271 123.625 15.389-22.506 32.14-48.343 46.72-73.885z" fill="#fe646f"/><path d="m397.792 141.244c0 50.835-68.309 152.824-109.914 210.229-15.448 21.314-47.186 21.314-62.634 0-41.605-57.404-109.914-159.393-109.914-210.229 0-73.096 63.231-132.352 141.231-132.352s141.231 59.256 141.231 132.352z" fill="#bbec6c"/><path d="m178.16 149.791c0-69.443 57.081-126.391 129.666-131.91-15.89-5.803-33.184-8.989-51.266-8.989-78 0-141.231 59.256-141.231 132.352 0 50.835 68.309 152.824 109.914 210.229 14.451 19.938 43.154 21.221 59.445 3.857-41.816-58.122-106.528-156.058-106.528-205.539z" fill="#a2e62e"/><g fill="#fef056"><path d="m326.1 126.113c-6.26-3.921-11.535-8.975-15.764-15.234-2.445-3.619-7.82-3.288-9.885.561-3.408 6.35-8.744 11.397-16.029 15.143-3.93 2.021-4.215 7.524-.519 9.948 6.198 4.065 11.389 9.35 15.496 15.946 2.274 3.651 7.534 3.596 9.826-.044 4.178-6.634 9.823-12.134 16.906-16.524 3.636-2.254 3.593-7.526-.031-9.796z"/><path d="m178.017 236.411c-6.789-4.251-12.509-9.733-17.094-16.52-2.652-3.925-8.48-3.565-10.72.608-3.695 6.886-9.482 12.359-17.382 16.421-4.262 2.192-4.571 8.159-.563 10.787 6.721 4.409 12.35 10.139 16.804 17.292 2.466 3.959 8.17 3.899 10.656-.048 4.531-7.194 10.653-13.159 18.334-17.919 3.942-2.443 3.896-8.16-.035-10.621z"/></g></g></g><g><path d="m131.698 206.8c1.026 0 2.069-.212 3.066-.66 3.779-1.696 5.468-6.134 3.771-9.913-10.422-23.222-15.707-41.721-15.707-54.983 0-68.844 59.992-124.852 133.731-124.852 12.728 0 25.334 1.673 37.468 4.974 3.995 1.086 8.118-1.272 9.206-5.269 1.087-3.997-1.272-8.118-5.269-9.206-13.417-3.649-27.348-5.499-41.405-5.499-82.011 0-148.731 62.737-148.731 139.852 0 15.61 5.568 35.604 17.022 61.125 1.25 2.782 3.984 4.431 6.848 4.431z"/><path d="m289.146 361.497c1.722-1.729 3.337-3.597 4.805-5.623 19.762-27.267 48.122-68.183 71-108.261 26.769-46.895 40.342-82.682 40.342-106.369 0-50.527-29.143-97.289-76.055-122.038-3.663-1.933-8.2-.53-10.133 3.134s-.53 8.2 3.134 10.133c41.978 22.146 68.054 63.825 68.054 108.771 0 35.68-39.542 110.701-108.487 205.827-5.936 8.19-15.137 12.887-25.245 12.887s-19.309-4.697-25.245-12.887c-15.709-21.674-30.236-42.809-43.177-62.815-2.249-3.478-6.891-4.475-10.371-2.224-3.478 2.25-4.474 6.893-2.224 10.371 13.084 20.228 27.762 41.583 43.626 63.471 1.678 2.316 3.536 4.439 5.542 6.366l-5.098 14.422c-2.989 8.457-1.682 17.878 3.497 25.202s13.626 11.696 22.596 11.696h3.353v91.67c0 4.142 3.358 7.5 7.5 7.5s7.5-3.358 7.5-7.5v-91.67h4.353c8.97 0 17.417-4.372 22.596-11.696s6.486-16.745 3.497-25.202zm-10.384 31.706c-2.407 3.404-6.179 5.356-10.349 5.356h-22.705c-4.169 0-7.941-1.952-10.349-5.356s-2.991-7.611-1.602-11.542l3.798-10.745c5.857 2.635 12.293 4.043 19.005 4.043 7.042 0 13.778-1.557 19.861-4.448l3.941 11.151c1.391 3.929.807 8.136-1.6 11.541z"/><path d="m183.158 331.771c-3.439-2.307-8.099-1.39-10.406 2.051-8.276 12.337-17.199 25.115-26.521 37.978-4.752 6.556-12.118 10.316-20.208 10.316s-15.457-3.76-20.208-10.316c-11.471-15.827-22.241-31.386-32.011-46.244-2.275-3.461-6.926-4.421-10.387-2.146-3.461 2.276-4.422 6.926-2.146 10.387 9.895 15.047 20.795 30.795 32.399 46.805 1.294 1.785 2.717 3.429 4.238 4.947l-4.025 11.388c-2.639 7.465-1.485 15.782 3.087 22.247s12.029 10.325 19.947 10.325h1.607v75.081c0 4.142 3.358 7.5 7.5 7.5s7.5-3.358 7.5-7.5v-75.08h2.447c7.918 0 15.375-3.86 19.947-10.325s5.726-14.782 3.087-22.247l-4.248-12.019c1.288-1.343 2.505-2.775 3.621-4.316 9.429-13.009 18.457-25.937 26.833-38.425 2.305-3.44 1.387-8.099-2.053-10.407zm-39.49 78.753c-1.792 2.533-4.598 3.986-7.7 3.986h-19.054c-3.102 0-5.909-1.453-7.7-3.986s-2.225-5.663-1.191-8.587l2.76-7.808c4.742 1.945 9.888 2.987 15.239 2.987 5.627 0 11.034-1.139 15.974-3.283l2.864 8.104c1.034 2.924.599 6.054-1.192 8.587z"/><path d="m15 199.777c0-22.814 7.798-44.452 22.552-62.572 14.366-17.644 34.762-30.745 57.433-36.892 3.998-1.084 6.36-5.204 5.276-9.201-1.084-3.998-5.204-6.358-9.201-5.276-25.675 6.961-48.809 21.841-65.14 41.898-16.957 20.827-25.92 45.739-25.92 72.043 0 22.802 14.72 58.59 43.751 106.371 1.412 2.323 3.883 3.606 6.417 3.606 1.327 0 2.67-.352 3.887-1.091 3.54-2.151 4.666-6.764 2.515-10.304-34.358-56.548-41.57-84.821-41.57-98.582z"/><path d="m441.561 337.293c-3.427-2.327-8.091-1.436-10.418 1.991-7.201 10.604-14.883 21.544-22.835 32.516-4.752 6.556-12.118 10.316-20.208 10.316s-15.457-3.76-20.208-10.316c-9.522-13.138-18.61-26.162-27.012-38.708-2.305-3.442-6.963-4.363-10.405-2.059-3.442 2.305-4.364 6.963-2.059 10.405 8.504 12.7 17.699 25.877 27.33 39.165 1.117 1.541 2.334 2.973 3.621 4.316l-4.248 12.019c-2.639 7.465-1.485 15.782 3.087 22.247s12.029 10.325 19.947 10.325h2.027v75.719c0 4.142 3.358 7.5 7.5 7.5s7.5-3.358 7.5-7.5v-75.719h2.027c7.918 0 15.375-3.86 19.947-10.325s5.726-14.782 3.087-22.247l-4.025-11.388c1.521-1.518 2.944-3.162 4.238-4.947 8.041-11.095 15.813-22.162 23.099-32.892 2.326-3.427 1.435-8.091-1.992-10.418zm-36.654 73.231c-1.792 2.533-4.598 3.986-7.7 3.986h-19.054c-3.102 0-5.909-1.453-7.7-3.986s-2.225-5.663-1.191-8.587l2.864-8.104c4.941 2.145 10.347 3.283 15.974 3.283 5.351 0 10.498-1.042 15.239-2.987l2.76 7.808c1.033 2.924.599 6.054-1.192 8.587z"/><path d="m421.896 85.526c-4.01-1.045-8.105 1.353-9.152 5.36-1.047 4.008 1.353 8.105 5.36 9.152 47.702 12.464 81.018 53.478 81.018 99.738 0 15.268-8.757 47.249-50.475 112.905-2.222 3.496-1.188 8.131 2.308 10.352 1.247.792 2.639 1.171 4.015 1.171 2.48 0 4.908-1.23 6.337-3.479 35.045-55.155 52.815-95.848 52.815-120.95-.001-53.08-37.925-100.062-92.226-114.249z"/><path d="m293.842 110.894c-2.699 5.03-6.902 8.961-12.85 12.019-4.244 2.182-6.927 6.329-7.179 11.092-.252 4.767 1.982 9.177 5.976 11.797 5.329 3.496 9.784 8.084 13.244 13.64 2.429 3.9 6.617 6.235 11.201 6.247h.034c4.611 0 8.834-2.338 11.304-6.259 3.532-5.608 8.415-10.368 14.511-14.146 3.907-2.421 6.245-6.61 6.256-11.206.011-4.628-2.329-8.86-6.258-11.32-5.4-3.382-9.952-7.781-13.53-13.076-2.621-3.878-6.982-6.053-11.636-5.814-4.701.237-8.84 2.864-11.073 7.026zm11.866 9.423c3.965 5.339 8.723 9.931 14.192 13.695-6.254 4.238-11.482 9.357-15.592 15.266-3.848-5.626-8.524-10.454-13.947-14.399 6.528-3.804 11.674-8.687 15.347-14.562z"/><path d="m167.137 218.692c-2.716-4.02-7.235-6.268-12.063-6.026-4.873.248-9.165 2.973-11.48 7.288-2.989 5.57-7.635 9.92-14.203 13.297-4.399 2.262-7.182 6.561-7.443 11.499-.261 4.942 2.055 9.514 6.195 12.23 5.856 3.841 10.752 8.882 14.552 14.985 2.518 4.043 6.857 6.464 11.609 6.477h.037c4.781 0 9.162-2.425 11.723-6.492 3.882-6.164 9.245-11.393 15.938-15.542 4.049-2.509 6.473-6.851 6.484-11.615.011-4.798-2.415-9.187-6.489-11.738-5.93-3.715-10.93-8.547-14.86-14.363zm-12.756 43.713c-4.413-6.649-9.88-12.288-16.292-16.801 7.696-4.309 13.66-9.971 17.767-16.869 4.55 6.313 10.111 11.681 16.571 15.992-7.336 4.831-13.393 10.765-18.046 17.678z"/></g></g></svg>